<svg width="56" height="56" viewBox="0 0 56 56" fill="none" xmlns="http://www.w3.org/2000/svg">
<rect width="56" height="56" rx="28" fill="#A53DFF"/>
<path d="M30.464 36L26.624 29.328H24.536V36H21.8V19.32H27.56C28.84 19.32 29.92 19.544 30.8 19.992C31.696 20.44 32.36 21.04 32.792 21.792C33.24 22.544 33.464 23.384 33.464 24.312C33.464 25.4 33.144 26.392 32.504 27.288C31.88 28.168 30.912 28.768 29.6 29.088L33.728 36H30.464ZM24.536 27.144H27.56C28.584 27.144 29.352 26.888 29.864 26.376C30.392 25.864 30.656 25.176 30.656 24.312C30.656 23.448 30.4 22.776 29.888 22.296C29.376 21.8 28.6 21.552 27.56 21.552H24.536V27.144Z" fill="white"/>
</svg>
