<svg width="286" height="56" viewBox="0 0 286 56" fill="none" xmlns="http://www.w3.org/2000/svg">
<rect width="56" height="56" rx="28" fill="#A53DFF"/>
<path d="M30.464 36L26.624 29.328H24.536V36H21.8V19.32H27.56C28.84 19.32 29.92 19.544 30.8 19.992C31.696 20.44 32.36 21.04 32.792 21.792C33.24 22.544 33.464 23.384 33.464 24.312C33.464 25.4 33.144 26.392 32.504 27.288C31.88 28.168 30.912 28.768 29.6 29.088L33.728 36H30.464ZM24.536 27.144H27.56C28.584 27.144 29.352 26.888 29.864 26.376C30.392 25.864 30.656 25.176 30.656 24.312C30.656 23.448 30.4 22.776 29.888 22.296C29.376 21.8 28.6 21.552 27.56 21.552H24.536V27.144Z" fill="white"/>
<path d="M80.064 17.88C82.4533 17.88 84.3307 18.456 85.696 19.608C87.0613 20.76 87.744 22.3067 87.744 24.248C87.744 26.3173 87.0613 27.9067 85.696 29.016C84.3307 30.104 82.464 30.648 80.096 30.648L79.648 30.904H75.104V39H70.752V17.88H80.064ZM79.552 27.544C80.7893 27.544 81.7067 27.2987 82.304 26.808C82.9227 26.296 83.232 25.5173 83.232 24.472C83.232 23.4267 82.9227 22.6587 82.304 22.168C81.7067 21.656 80.7893 21.4 79.552 21.4H75.104V27.544H79.552ZM82.144 28.472L88.992 39H84.032L78.368 29.752L82.144 28.472ZM101.174 28.792C101.174 27.8747 100.907 27.16 100.374 26.648C99.862 26.136 99.1793 25.88 98.326 25.88C97.5367 25.88 96.8433 26.0827 96.246 26.488C95.6487 26.8933 95.2113 27.5653 94.934 28.504L91.19 27.352C91.5527 25.944 92.342 24.8133 93.558 23.96C94.7953 23.1067 96.4487 22.68 98.518 22.68C99.926 22.68 101.153 22.904 102.198 23.352C103.243 23.7787 104.054 24.4293 104.63 25.304C105.227 26.1787 105.526 27.2773 105.526 28.6V35.096C105.526 35.9067 105.91 36.312 106.678 36.312C107.041 36.312 107.382 36.2587 107.702 36.152L107.446 38.872C106.891 39.1493 106.198 39.288 105.366 39.288C104.619 39.288 103.947 39.16 103.35 38.904C102.753 38.648 102.283 38.264 101.942 37.752C101.601 37.2187 101.43 36.5573 101.43 35.768V35.64L102.198 35.512C102.07 36.3227 101.718 37.016 101.142 37.592C100.566 38.1467 99.862 38.5733 99.03 38.872C98.2193 39.1707 97.3767 39.32 96.502 39.32C95.414 39.32 94.4753 39.16 93.686 38.84C92.8967 38.4987 92.2887 38.008 91.862 37.368C91.4353 36.728 91.222 35.9387 91.222 35C91.222 33.8053 91.606 32.8347 92.374 32.088C93.142 31.32 94.2407 30.7973 95.67 30.52L101.686 29.304L101.654 32.024L97.814 32.792C97.0887 32.9413 96.534 33.144 96.15 33.4C95.7873 33.6347 95.606 34.0293 95.606 34.584C95.606 35.1173 95.798 35.5227 96.182 35.8C96.5873 36.0773 97.0673 36.216 97.622 36.216C98.07 36.216 98.5073 36.1627 98.934 36.056C99.3607 35.9493 99.7447 35.7787 100.086 35.544C100.427 35.3093 100.694 34.9893 100.886 34.584C101.078 34.1787 101.174 33.688 101.174 33.112V28.792ZM110.429 39V23H114.365L114.525 25.88C115.058 24.8133 115.784 24.0133 116.701 23.48C117.64 22.9467 118.674 22.68 119.805 22.68C120.957 22.68 121.992 22.9467 122.909 23.48C123.848 24.0133 124.552 24.8027 125.021 25.848C125.362 25.144 125.821 24.5573 126.397 24.088C126.973 23.6187 127.613 23.2667 128.317 23.032C129.021 22.7973 129.736 22.68 130.461 22.68C131.506 22.68 132.456 22.8933 133.309 23.32C134.184 23.7467 134.877 24.3867 135.389 25.24C135.901 26.0933 136.157 27.1813 136.157 28.504V39H131.773V29.368C131.773 28.1947 131.517 27.3627 131.005 26.872C130.493 26.3813 129.832 26.136 129.021 26.136C128.381 26.136 127.784 26.296 127.229 26.616C126.696 26.936 126.269 27.416 125.949 28.056C125.65 28.6747 125.501 29.4533 125.501 30.392V39H121.117V29.368C121.117 28.1947 120.85 27.3627 120.317 26.872C119.805 26.3813 119.144 26.136 118.333 26.136C117.778 26.136 117.224 26.2853 116.669 26.584C116.136 26.8827 115.688 27.352 115.325 27.992C114.984 28.632 114.813 29.4747 114.813 30.52V39H110.429ZM149.799 28.792C149.799 27.8747 149.532 27.16 148.999 26.648C148.487 26.136 147.804 25.88 146.951 25.88C146.162 25.88 145.468 26.0827 144.871 26.488C144.274 26.8933 143.836 27.5653 143.559 28.504L139.815 27.352C140.178 25.944 140.967 24.8133 142.183 23.96C143.42 23.1067 145.074 22.68 147.143 22.68C148.551 22.68 149.778 22.904 150.823 23.352C151.868 23.7787 152.679 24.4293 153.255 25.304C153.852 26.1787 154.151 27.2773 154.151 28.6V35.096C154.151 35.9067 154.535 36.312 155.303 36.312C155.666 36.312 156.007 36.2587 156.327 36.152L156.071 38.872C155.516 39.1493 154.823 39.288 153.991 39.288C153.244 39.288 152.572 39.16 151.975 38.904C151.378 38.648 150.908 38.264 150.567 37.752C150.226 37.2187 150.055 36.5573 150.055 35.768V35.64L150.823 35.512C150.695 36.3227 150.343 37.016 149.767 37.592C149.191 38.1467 148.487 38.5733 147.655 38.872C146.844 39.1707 146.002 39.32 145.127 39.32C144.039 39.32 143.1 39.16 142.311 38.84C141.522 38.4987 140.914 38.008 140.487 37.368C140.06 36.728 139.847 35.9387 139.847 35C139.847 33.8053 140.231 32.8347 140.999 32.088C141.767 31.32 142.866 30.7973 144.295 30.52L150.311 29.304L150.279 32.024L146.439 32.792C145.714 32.9413 145.159 33.144 144.775 33.4C144.412 33.6347 144.231 34.0293 144.231 34.584C144.231 35.1173 144.423 35.5227 144.807 35.8C145.212 36.0773 145.692 36.216 146.247 36.216C146.695 36.216 147.132 36.1627 147.559 36.056C147.986 35.9493 148.37 35.7787 148.711 35.544C149.052 35.3093 149.319 34.9893 149.511 34.584C149.703 34.1787 149.799 33.688 149.799 33.112V28.792ZM187.023 17.88L177.359 28.856L177.007 28.504L171.727 34.488L171.055 30.392L181.903 17.88H187.023ZM173.231 17.88V39H168.815V17.88H173.231ZM178.575 25.176L187.279 39H182.222L175.183 27.64L178.575 25.176ZM190.085 39V23H193.893L194.181 26.136C194.608 25.0267 195.227 24.1733 196.037 23.576C196.869 22.9787 197.904 22.68 199.141 22.68C199.504 22.68 199.835 22.712 200.133 22.776C200.432 22.84 200.677 22.9253 200.869 23.032L200.357 26.712C200.144 26.6267 199.877 26.5627 199.557 26.52C199.259 26.4773 198.864 26.456 198.373 26.456C197.733 26.456 197.115 26.616 196.517 26.936C195.92 27.2347 195.429 27.704 195.045 28.344C194.661 28.9627 194.469 29.752 194.469 30.712V39H190.085ZM205.793 20.696C204.876 20.696 204.193 20.504 203.745 20.12C203.297 19.7147 203.073 19.128 203.073 18.36C203.073 17.5707 203.297 16.984 203.745 16.6C204.193 16.1947 204.876 15.992 205.793 15.992C206.711 15.992 207.393 16.1947 207.841 16.6C208.289 16.984 208.513 17.5707 208.513 18.36C208.513 19.128 208.289 19.7147 207.841 20.12C207.393 20.504 206.711 20.696 205.793 20.696ZM207.969 23V39H203.585V23H207.969ZM219.017 39.32C217.395 39.32 215.913 39.032 214.569 38.456C213.246 37.88 212.169 37.0693 211.337 36.024L213.865 33.464C214.377 34.232 215.059 34.8613 215.913 35.352C216.766 35.8427 217.779 36.088 218.953 36.088C219.785 36.088 220.446 35.9707 220.937 35.736C221.449 35.48 221.705 35.0853 221.705 34.552C221.705 34.2107 221.587 33.9227 221.353 33.688C221.118 33.432 220.649 33.2293 219.945 33.08L217.129 32.504C215.273 32.12 213.95 31.544 213.161 30.776C212.393 29.9867 212.009 28.9733 212.009 27.736C212.009 26.8613 212.265 26.04 212.777 25.272C213.31 24.504 214.099 23.8853 215.145 23.416C216.19 22.9253 217.491 22.68 219.049 22.68C220.649 22.68 222.035 22.936 223.209 23.448C224.403 23.9387 225.342 24.6747 226.025 25.656L223.401 28.216C222.931 27.4693 222.313 26.904 221.545 26.52C220.798 26.1147 220.009 25.912 219.177 25.912C218.579 25.912 218.067 25.976 217.641 26.104C217.214 26.232 216.894 26.4133 216.681 26.648C216.467 26.8613 216.361 27.1387 216.361 27.48C216.361 27.8213 216.51 28.12 216.809 28.376C217.107 28.6107 217.651 28.8133 218.441 28.984L221.705 29.656C223.283 29.976 224.414 30.52 225.097 31.288C225.779 32.0347 226.121 32.9413 226.121 34.008C226.121 35.032 225.843 35.9493 225.289 36.76C224.755 37.5493 223.955 38.1787 222.889 38.648C221.843 39.096 220.553 39.32 219.017 39.32ZM229.617 39V15.992H234.001V25.72C234.513 24.696 235.217 23.9387 236.113 23.448C237.009 22.936 238.022 22.68 239.153 22.68C240.262 22.68 241.243 22.8933 242.097 23.32C242.971 23.7467 243.654 24.3973 244.145 25.272C244.657 26.1253 244.913 27.2027 244.913 28.504V39H240.529V29.784C240.529 28.3973 240.262 27.448 239.729 26.936C239.195 26.4027 238.513 26.136 237.681 26.136C237.062 26.136 236.465 26.2853 235.889 26.584C235.334 26.8613 234.875 27.3307 234.513 27.992C234.171 28.632 234.001 29.4853 234.001 30.552V39H229.617ZM249.429 39V23H253.365L253.621 27.8L253.077 27.288C253.333 26.2427 253.738 25.3787 254.293 24.696C254.848 24.0133 255.52 23.512 256.309 23.192C257.12 22.8507 258.005 22.68 258.965 22.68C260.074 22.68 261.056 22.8933 261.909 23.32C262.784 23.7467 263.466 24.3973 263.957 25.272C264.469 26.1253 264.725 27.2027 264.725 28.504V39H260.341V29.752C260.341 28.3867 260.074 27.448 259.541 26.936C259.008 26.4027 258.314 26.136 257.461 26.136C256.864 26.136 256.277 26.2853 255.701 26.584C255.146 26.8613 254.688 27.32 254.325 27.96C253.984 28.6 253.813 29.4533 253.813 30.52V39H249.429ZM278.362 28.792C278.362 27.8747 278.095 27.16 277.562 26.648C277.05 26.136 276.367 25.88 275.514 25.88C274.724 25.88 274.031 26.0827 273.434 26.488C272.836 26.8933 272.399 27.5653 272.122 28.504L268.378 27.352C268.74 25.944 269.53 24.8133 270.746 23.96C271.983 23.1067 273.636 22.68 275.706 22.68C277.114 22.68 278.34 22.904 279.386 23.352C280.431 23.7787 281.242 24.4293 281.818 25.304C282.415 26.1787 282.714 27.2773 282.714 28.6V35.096C282.714 35.9067 283.098 36.312 283.866 36.312C284.228 36.312 284.57 36.2587 284.89 36.152L284.634 38.872C284.079 39.1493 283.386 39.288 282.554 39.288C281.807 39.288 281.135 39.16 280.538 38.904C279.94 38.648 279.471 38.264 279.13 37.752C278.788 37.2187 278.618 36.5573 278.618 35.768V35.64L279.386 35.512C279.258 36.3227 278.906 37.016 278.33 37.592C277.754 38.1467 277.05 38.5733 276.218 38.872C275.407 39.1707 274.564 39.32 273.69 39.32C272.602 39.32 271.663 39.16 270.874 38.84C270.084 38.4987 269.476 38.008 269.049 37.368C268.623 36.728 268.41 35.9387 268.41 35C268.41 33.8053 268.794 32.8347 269.562 32.088C270.33 31.32 271.428 30.7973 272.858 30.52L278.874 29.304L278.842 32.024L275.002 32.792C274.276 32.9413 273.722 33.144 273.338 33.4C272.975 33.6347 272.794 34.0293 272.794 34.584C272.794 35.1173 272.986 35.5227 273.37 35.8C273.775 36.0773 274.255 36.216 274.81 36.216C275.258 36.216 275.695 36.1627 276.122 36.056C276.548 35.9493 276.932 35.7787 277.274 35.544C277.615 35.3093 277.882 34.9893 278.074 34.584C278.266 34.1787 278.362 33.688 278.362 33.112V28.792Z" fill="#132238"/>
</svg>
